<svg id="svg" version="1.1" width="505" height="500" xmlns="http://www.w3.org/2000/svg" xmlns:xlink="http://www.w3.org/1999/xlink" style="display: block;"><g id="svgg"><path id="path0" d="M330.766 7.723 C 331.857 10.663,333.951 16.099,335.420 19.802 C 336.890 23.505,339.495 30.277,341.211 34.851 C 342.926 39.426,347.639 51.723,351.684 62.178 C 355.729 72.634,359.846 83.327,360.833 85.941 C 361.821 88.554,364.293 94.970,366.327 100.198 C 368.361 105.426,370.681 111.485,371.482 113.663 C 372.283 115.842,373.877 119.941,375.024 122.772 C 376.171 125.604,378.371 131.307,379.913 135.446 C 381.455 139.584,384.237 146.891,386.097 151.683 C 387.956 156.475,391.378 165.297,393.702 171.287 C 396.025 177.277,398.146 182.178,398.415 182.178 C 399.867 182.178,393.579 145.857,389.296 129.505 C 387.698 123.406,386.082 117.168,385.704 115.644 C 384.364 110.244,375.763 86.088,372.307 78.020 C 368.134 68.277,366.732 65.313,359.942 51.881 C 352.114 36.398,347.340 28.263,336.870 12.569 C 329.181 1.043,327.918 0.040,330.766 7.723 M264.950 7.124 C 259.287 8.331,251.980 10.040,248.713 10.923 C 245.446 11.806,240.099 13.256,236.832 14.146 C 196.022 25.257,126.892 61.357,107.723 81.568 C 107.505 81.797,104.119 84.636,100.198 87.876 C 64.844 117.091,27.896 165.189,6.853 209.390 C 0.459 222.820,0.438 221.099,7.124 231.008 C 40.150 279.951,95.710 330.300,140.379 351.766 C 144.986 353.981,142.580 358.520,157.641 319.208 C 164.735 300.693,171.571 282.871,172.834 279.604 C 174.097 276.337,176.315 270.447,177.763 266.515 C 179.211 262.584,181.119 257.594,182.003 255.426 C 182.886 253.259,185.110 247.564,186.944 242.772 C 188.779 237.980,191.109 231.921,192.122 229.307 C 193.135 226.693,195.457 220.634,197.281 215.842 C 199.106 211.050,202.181 203.030,204.115 198.020 C 206.050 193.010,208.293 187.129,209.101 184.950 C 209.908 182.772,212.226 176.713,214.252 171.485 C 216.278 166.257,220.451 155.386,223.526 147.327 C 226.601 139.267,229.737 131.069,230.496 129.109 C 232.675 123.481,239.760 105.025,243.571 95.050 C 245.485 90.040,249.512 79.525,252.519 71.683 C 255.527 63.842,261.256 48.871,265.250 38.416 C 269.245 27.960,273.556 16.733,274.831 13.465 C 276.106 10.198,277.384 6.901,277.669 6.139 C 278.341 4.349,277.770 4.393,264.950 7.124 M302.177 49.505 C 300.394 59.171,297.373 70.100,293.811 79.773 C 291.599 85.779,286.551 99.604,282.594 110.495 C 278.636 121.386,274.610 132.436,273.647 135.050 C 272.034 139.429,269.287 146.959,257.035 180.594 C 250.471 198.614,249.050 202.494,246.447 209.505 C 242.352 220.531,236.040 238.268,236.040 238.747 C 236.040 239.001,266.375 239.208,303.451 239.208 C 367.345 239.208,370.832 239.136,370.283 237.822 C 369.574 236.127,366.532 227.939,364.028 220.990 C 357.164 201.932,355.460 197.344,354.429 195.128 C 353.790 193.755,353.267 192.205,353.267 191.683 C 353.267 191.161,352.746 189.611,352.110 188.239 C 350.976 185.794,342.595 163.068,339.651 154.455 C 338.832 152.059,337.824 149.386,337.410 148.515 C 336.996 147.644,335.177 142.832,333.367 137.822 C 328.064 123.141,327.493 121.581,321.185 104.554 C 309.679 73.497,307.351 66.491,305.725 58.023 C 303.575 46.822,302.949 45.321,302.177 49.505 M219.571 282.571 C 219.139 283.771,216.594 290.990,213.916 298.614 C 211.237 306.238,208.347 314.216,207.493 316.343 C 206.639 318.471,205.941 320.538,205.941 320.938 C 205.941 321.337,204.887 324.409,203.599 327.763 C 197.120 344.641,187.672 372.538,188.252 373.079 C 189.329 374.084,210.247 380.669,222.178 383.759 C 262.884 394.303,312.015 398.400,349.064 394.341 L 357.139 393.456 361.469 384.649 C 363.850 379.805,367.281 372.455,369.092 368.317 C 370.904 364.178,372.708 360.079,373.102 359.208 C 381.128 341.446,393.299 298.897,391.410 295.200 C 390.922 294.246,389.491 290.614,388.230 287.129 L 385.936 280.792 303.146 280.590 L 220.356 280.389 219.571 282.571 " stroke="none" fill="#3d6098" fill-rule="evenodd"></path></g></svg>